HIERARCHY
ROOT hip
{
  OFFSET 0 0 0
  CHANNELS 6 Xposition Yposition Zposition Zrotation Yrotation Xrotation
  JOINT abdomen
  {
    OFFSET 0 20.6881 -0.73152
    CHANNELS 3 Zrotation Xrotation Yrotation
    JOINT chest
    {
      OFFSET 0 11.7043 -0.48768
      CHANNELS 3 Zrotation Xrotation Yrotation
      JOINT neck
      {
        OFFSET 0 22.1894 -2.19456
        CHANNELS 3 Zrotation Xrotation Yrotation
        JOINT head
        {
          OFFSET -0.24384 7.07133 1.2192
          CHANNELS 3 Zrotation Xrotation Yrotation
          JOINT leftEye
          {
            OFFSET 4.14528 8.04674 8.04672
            CHANNELS 3 Zrotation Xrotation Yrotation
            End Site
            {
              OFFSET 1 0 0
            }
          }
          JOINT rightEye
          {
            OFFSET -3.6576 8.04674 8.04672
            CHANNELS 3 Zrotation Xrotation Yrotation
            End Site
            {
              OFFSET 1 0 0
            }
          }
        }
      }
      JOINT rCollar
      {
        OFFSET -2.68224 19.2634 -4.8768
        CHANNELS 3 Zrotation Xrotation Yrotation
        JOINT rShldr
        {
          OFFSET -8.77824 -1.95073 1.46304
          CHANNELS 3 Zrotation Xrotation Yrotation
          JOINT rForeArm
          {
            OFFSET -28.1742 -1.7115 0.48768
            CHANNELS 3 Zrotation Xrotation Yrotation
            JOINT rHand
            {
              OFFSET -22.5879 0.773209 7.07136
              CHANNELS 3 Zrotation Xrotation Yrotation
              JOINT rThumb1
              {
                OFFSET -1.2192 -0.487915 3.41376
                CHANNELS 3 Zrotation Xrotation Yrotation
                JOINT rThumb2
                {
                  OFFSET -3.37035 -0.52449 3.41376
                  CHANNELS 3 Zrotation Xrotation Yrotation
                  End Site
                  {
                    OFFSET -1.78271 -1.18214 1.43049
                  }
                }
              }
              JOINT rIndex1
              {
                OFFSET -7.75947 0.938293 5.60832
                CHANNELS 3 Zrotation Xrotation Yrotation
                JOINT rIndex2
                {
                  OFFSET -2.54057 -0.884171 1.56538
                  CHANNELS 3 Zrotation Xrotation Yrotation
                  End Site
                  {
                    OFFSET -1.62519 -0.234802 1.16502
                  }
                }
              }
              JOINT rMid1
              {
                OFFSET -8.24714 1.18213 3.41376
                CHANNELS 3 Zrotation Xrotation Yrotation
                JOINT rMid2
                {
                  OFFSET -3.10165 -0.590103 1.0647
                  CHANNELS 3 Zrotation Xrotation Yrotation
                  End Site
                  {
                    OFFSET -2.48547 -0.328903 0.83742
                  }
                }
              }
              JOINT rRing1
              {
                OFFSET -8.82822 0.546677 1.51678
                CHANNELS 3 Zrotation Xrotation Yrotation
                JOINT rRing2
                {
                  OFFSET -2.60934 -0.819778 -0.0198488
                  CHANNELS 3 Zrotation Xrotation Yrotation
                  End Site
                  {
                    OFFSET -2.33842 -0.294052 0.168128
                  }
                }
              }
              JOINT rPinky1
              {
                OFFSET -8.27202 -0.0477905 -0.4584
                CHANNELS 3 Zrotation Xrotation Yrotation
                JOINT rPinky2
                {
                  OFFSET -1.82734 -0.647385 -0.700984
                  CHANNELS 3 Zrotation Xrotation Yrotation
                  End Site
                  {
                    OFFSET -1.69225 -0.51767 -0.607171
                  }
                }
              }
            }
          }
        }
      }
      JOINT lCollar
      {
        OFFSET 2.68224 19.2634 -4.8768
        CHANNELS 3 Zrotation Xrotation Yrotation
        JOINT lShldr
        {
          OFFSET 8.77824 -1.95073 1.46304
          CHANNELS 3 Zrotation Xrotation Yrotation
          JOINT lForeArm
          {
            OFFSET 28.1742 -1.7115 0.48768
            CHANNELS 3 Zrotation Xrotation Yrotation
            JOINT lHand
            {
              OFFSET 22.5879 0.773209 7.07136
              CHANNELS 3 Zrotation Xrotation Yrotation
              JOINT lThumb1
              {
                OFFSET 1.2192 -0.487915 3.41376
                CHANNELS 3 Zrotation Xrotation Yrotation
                JOINT lThumb2
                {
                  OFFSET 3.37035 -0.52449 3.41376
                  CHANNELS 3 Zrotation Xrotation Yrotation
                  End Site
                  {
                    OFFSET 1.78271 -1.18214 1.43049
                  }
                }
              }
              JOINT lIndex1
              {
                OFFSET 7.75947 0.938293 5.60832
                CHANNELS 3 Zrotation Xrotation Yrotation
                JOINT lIndex2
                {
                  OFFSET 2.54057 -0.884171 1.56538
                  CHANNELS 3 Zrotation Xrotation Yrotation
                  End Site
                  {
                    OFFSET 1.62519 -0.234802 1.16502
                  }
                }
              }
              JOINT lMid1
              {
                OFFSET 8.24714 1.18213 3.41376
                CHANNELS 3 Zrotation Xrotation Yrotation
                JOINT lMid2
                {
                  OFFSET 3.10165 -0.590103 1.0647
                  CHANNELS 3 Zrotation Xrotation Yrotation
                  End Site
                  {
                    OFFSET 2.48547 -0.328903 0.83742
                  }
                }
              }
              JOINT lRing1
              {
                OFFSET 8.82822 0.546677 1.51678
                CHANNELS 3 Zrotation Xrotation Yrotation
                JOINT lRing2
                {
                  OFFSET 2.60934 -0.819778 -0.0198488
                  CHANNELS 3 Zrotation Xrotation Yrotation
                  End Site
                  {
                    OFFSET 2.33842 -0.294052 0.168128
                  }
                }
              }
              JOINT lPinky1
              {
                OFFSET 8.27202 -0.0477905 -0.4584
                CHANNELS 3 Zrotation Xrotation Yrotation
                JOINT lPinky2
                {
                  OFFSET 1.82734 -0.647385 -0.700984
                  CHANNELS 3 Zrotation Xrotation Yrotation
                  End Site
                  {
                    OFFSET 1.69225 -0.51767 -0.607171
                  }
                }
              }
            }
          }
        }
      }
    }
  }
  JOINT rButtock
  {
    OFFSET -8.77824 4.35084 1.2192
    CHANNELS 3 Zrotation Xrotation Yrotation
    JOINT rThigh
    {
      OFFSET 0 -1.70687 -2.19456
      CHANNELS 3 Zrotation Xrotation Yrotation
      JOINT rShin
      {
        OFFSET 0 -36.8199 0.73152
        CHANNELS 3 Zrotation Xrotation Yrotation
        JOINT rFoot
        {
          OFFSET 0.73152 -45.1104 -5.12064
          CHANNELS 3 Zrotation Xrotation Yrotation
          End Site
          {
            OFFSET -1.1221 -3.69964 12.103
          }
        }
      }
    }
  }
  JOINT lButtock
  {
    OFFSET 8.77824 4.35084 1.2192
    CHANNELS 3 Zrotation Xrotation Yrotation
    JOINT lThigh
    {
      OFFSET 0 -1.70687 -2.19456
      CHANNELS 3 Zrotation Xrotation Yrotation
      JOINT lShin
      {
        OFFSET 0 -36.8199 0.73152
        CHANNELS 3 Zrotation Xrotation Yrotation
        JOINT lFoot
        {
          OFFSET -0.73152 -45.1104 -5.12064
          CHANNELS 3 Zrotation Xrotation Yrotation
          End Site
          {
            OFFSET 1.1221 -3.69964 12.103
          }
        }
      }
    }
  }
}
MOTION
Frames:	8
Frame Time:	0.03333
0.0 0.0 0.0 0.0 0.0 0.0 0.0 0.0 0.0 0.0 0.0 0.0 0.0 0.0 0.0 0.0 0.0 0.0 0.0 0.0 0.0 0.0 0.0 0.0 0.0 0.0 0.0 0.0 0.0 0.0 0.0 0.0 0.0 0.0 0.0 0.0 0.0 0.0 0.0 0.0 0.0 0.0 0.0 0.0 0.0 0.0 0.0 0.0 0.0 0.0 0.0 0.0 0.0 0.0 0.0 0.0 0.0 0.0 0.0 0.0 0.0 0.0 0.0 0.0 0.0 0.0 0.0 0.0 0.0 0.0 0.0 0.0 0.0 0.0 0.0 0.0 0.0 0.0 0.0 0.0 0.0 0.0 0.0 0.0 0.0 0.0 0.0 0.0 0.0 0.0 0.0 0.0 0.0 0.0 0.0 0.0 0.0 0.0 0.0 0.0 0.0 0.0 0.0 0.0 0.0 0.0 0.0 0.0 0.0 0.0 0.0 0.0 0.0 0.0 0.0 0.0 0.0 0.0 0.0 0.0 0.0 0.0 0.0 0.0 0.0 0.0 0.0 0.0 0.0 0.0 0.0 0.0
1.8265 60.012600000000006 1.2291 -171.142649 -46.540303 178.843816 -7.380574 0.665302 -90.490289 12.29279 -5.389474 99.411386 21.406084 11.925644 89.247836 -33.784537 17.556056 -30.260959 -0.000449 0.0 -0.001268 -0.000449 0.0 -0.001268 -13.742951 42.431745 15.568569 -158.526777 13.008085 173.596097 -177.428131 5.162076 -54.548657 -16.615405 -47.754369 -12.839373 -178.718998 -16.254982 89.449739 128.924525 -61.213897 95.480113 88.791435 -75.500032 40.047928 171.885162 -53.797269 102.190385 -36.03575 51.722836 29.833256 -171.961278 -31.376898 143.994712 -0.008695 -0.872204 -0.273339 -141.735787 -80.968049 -164.246437 -157.295894 57.104695 -150.49257 -6.343116 -17.078077 -8.306791 69.033971 -86.843451 90.935822 -55.987416 -2.701402 -18.04848 -115.748108 24.269724 41.127778 32.114903 31.913774 -12.291238 164.698802 -2.371805 -89.585203 120.860011 9.766587 -56.683165 77.668287 43.028628 -64.5382 12.057332 25.5251 -3.445308 152.82652 14.793253 -138.514733 -2.732455 1.646482 -0.569233 -0.005935 1.687461 -0.530588 156.071549 -9.917199 -173.03947 41.390459 -46.84036 40.214175 -11.131869 24.620279 -5.335952 179.998166 75.750651 0.001255 172.909138 33.240059 -0.0 65.810459 58.229228 29.967463 -114.246724 -50.469023 -177.434703 -179.996187 75.750651 -0.003138 -144.701061 12.68597 0.0 -87.984974 85.854915 178.114974 163.029811 88.490505 102.375146
2.7161999999999997 60.1344 2.2723 -170.43068 -48.678598 177.369157 -6.602713 0.682366 -95.874262 12.305786 -3.968913 105.134297 13.446858 4.304287 22.524147 -20.456936 -17.907446 28.180977 0.000979 -0.0 -0.004785 -0.000355 -0.0 0.002824 -13.744307 42.431389 15.569707 14.456629 -12.0641 2.876885 71.27514 53.126623 97.254875 -37.746636 24.672771 18.816072 -1.583083 1.55645 0.264448 -66.722603 27.358985 61.3493 0.183339 -0.300756 -0.104293 -161.399123 -13.585807 110.119451 68.985815 -80.153365 40.580922 -42.430105 58.400271 36.297074 0.003737 0.917678 0.289022 -155.495914 -1.25734 171.999982 -144.108962 8.781869 -140.874672 -25.6455 -40.253388 -27.039655 44.039962 64.187283 -46.709834 -173.556205 75.286549 -151.351306 164.5987 -3.541324 108.684306 7.241542 -29.710147 6.866443 0.441692 0.435262 -0.069102 150.676381 -61.294281 -119.857498 153.453243 -21.067994 -121.743871 -132.882133 -69.593478 -75.858125 39.288373 53.36597 -32.87856 161.068444 1.290403 -142.508722 71.924469 72.973466 -89.772175 76.647495 83.206366 -85.544941 157.619013 58.281076 150.613364 26.110766 -40.338905 26.551266 0.0 -0.001266 0.001543 -8.360987 -41.786211 -5.71757 70.890456 54.469406 40.86062 160.340136 18.674011 130.696619 -179.977372 75.750754 -0.015482 -145.465899 11.495187 81.886652 94.585012 23.123371 153.85624 22.49788 75.514115 66.229838
3.6020000000000003 60.537600000000005 3.5326999999999997 -170.29046 -50.304991 176.300671 -5.712827 0.725275 -97.211377 12.210616 -3.455156 107.389055 13.422097 24.249671 -178.377879 16.899225 42.044984 -136.223646 0.002497 0.0 0.002531 0.002497 0.0 0.002531 3.541572 -62.053071 -13.039363 1.536632 12.414724 6.61962 -163.41763 -73.992692 32.124264 -142.457438 29.60653 128.36549 -78.030153 38.690165 42.412816 3.381038 -15.466308 23.967334 -162.635246 -37.465678 122.650087 -46.34644 55.185338 33.720395 6.533669 -20.414825 -2.718327 -18.039939 42.273546 14.420651 0.001469 -0.060872 -0.018984 7.451977 26.544764 4.021777 -86.173276 -50.468128 -84.539393 51.671217 82.747629 -13.406203 157.797189 -22.115439 -165.467394 67.086916 -57.998416 109.605473 -21.474568 76.622214 113.873632 166.612123 10.756466 -139.707322 97.282343 37.462547 -56.025344 -101.821733 -51.379772 -46.091382 108.427762 34.16062 -91.742579 -8.368263 -3.49949 6.969559 151.476464 17.842067 -137.539859 160.341362 3.557776 -141.911639 -0.004213 1.770335 -0.556952 -11.281366 -44.108152 5.451437 75.779633 -51.668153 74.249154 24.079739 -40.967815 26.068175 179.993321 75.748324 0.00457 172.244827 33.584093 4.179325 74.895309 61.539711 114.230643 66.130315 -0.55891 150.869532 179.996327 75.750021 0.002513 -144.24556 14.371036 -9.350637 -133.953616 74.191819 -79.382343 155.080749 19.631694 149.427656
4.346 61.2722 4.972 -170.157869 -51.351311 175.450929 -6.906251 3.220517 0.10117 -2.53832 -14.17558 10.292144 16.239855 23.920059 167.630298 7.950627 43.389016 -118.429748 0.000829 -0.0 -0.001575 0.002135 0.0 0.003402 -59.829137 -86.721805 -81.629646 -170.399058 -1.126695 169.201669 -162.949446 65.175017 7.500311 -142.974805 29.139153 128.801917 178.475912 -18.892709 89.01264 -77.671189 10.489184 23.880615 -27.610201 30.765225 20.255878 14.089933 -9.333553 -2.270409 -0.058584 0.167681 0.032512 -4.715262 20.801348 4.252869 -77.741985 72.902568 95.870194 -156.299728 -45.260307 -176.129036 12.630533 42.934171 10.53556 -160.678159 55.490163 -149.527548 -3.73756 -33.150868 6.413479 0.905343 16.025566 -58.107979 87.355502 21.221151 -80.365886 -109.357659 -81.315497 -90.440956 -4.531226 -4.51394 0.521827 117.150092 -2.227873 -106.089635 0.327388 0.53002 -0.185793 168.570277 -23.295552 -109.251082 -173.125499 -66.29811 -137.614465 163.8157 -5.832896 -143.174128 0.015102 -1.323099 0.416214 -11.219543 -13.788401 1.716035 80.504186 -51.277655 78.92903 159.313817 54.0947 148.428618 -179.997173 75.748757 -0.002917 171.154927 33.244057 51.225635 71.345726 9.581126 -25.50265 -177.765843 -13.752414 87.077178 -0.000213 -0.0008 0.000274 48.003929 -42.710782 58.58934 115.153017 72.835842 -34.685719 -30.14877 41.314969 -75.716365
4.9616 62.0625 6.529400000000001 -170.194413 -52.020317 174.99334 -3.097068 0.272881 -90.900799 11.506157 -4.426485 103.670451 7.920129 24.252755 -143.345561 32.201613 27.28385 -170.870107 0.0005 -0.0 -0.004922 0.001896 -0.0 -7.8e-05 1.989699 -14.05292 -2.881498 -168.541315 -76.348126 179.275381 12.25407 -49.278665 -152.594883 -131.296329 39.677004 116.204448 -171.654062 -9.33598 89.949782 -71.630423 2.509916 21.810873 -162.919572 -37.929314 122.629089 5.159331 15.648438 -6.438766 -121.549698 52.185617 111.462695 -4.881362 21.302271 4.693934 -70.380601 -72.130195 -87.27995 13.763291 -25.319978 -7.971627 -54.048688 -50.329051 -52.728579 4.578673 3.260777 0.30031 157.744018 -21.565173 -165.366715 38.768209 -61.305397 82.838795 -46.4196 59.882235 116.417216 166.754538 20.122531 -138.165963 0.47405 0.468183 -0.075529 0.479208 0.702511 -0.710302 -19.566708 -35.040816 5.987749 34.193892 44.625267 -27.450102 167.298948 -27.767547 -145.259471 168.222239 -19.493318 -143.899958 145.120566 1.975633 179.748441 -2.504012 -43.833801 17.902907 -12.251261 41.425183 -10.279835 8.559079 -22.257202 9.459993 -0.001034 0.000167 -0.000517 -9.597938 -43.619829 166.227264 -42.933738 -70.394914 47.308269 81.607637 44.95193 24.656325 -0.000272 0.001843 0.000349 44.807784 -41.130737 -123.512833 -147.866697 -74.678529 -89.938553 148.361616 -28.260368 -138.956864
5.4665 62.9046 8.1346 -170.497688 -52.34208 174.941672 -3.95727 1.998457 -0.026829 -2.053913 -13.32952 13.494277 11.365909 5.72785 6.563751 -12.335736 -19.945546 47.239279 -0.001942 0.0 -0.002973 -0.000452 -0.0 0.001732 0.022792 -0.13867 -0.030852 -164.961958 -14.430653 177.39663 -170.953247 -3.865192 -56.278299 -15.600602 -55.312604 -15.756183 -2.812786 2.75461 0.498903 -137.249975 -40.34547 117.223117 -7.259401 10.781095 4.546716 -74.334869 48.471918 56.6956 7.904361 -24.807551 -3.014029 -176.556361 -42.231025 142.880673 -0.014667 -1.323313 -0.414829 10.414012 0.337677 -0.02715 -25.539105 -38.087032 -24.598873 -22.344913 -40.110735 -23.925096 155.614275 -4.236332 -161.991192 48.812385 -56.74377 81.44363 45.54899 12.831904 32.600029 -152.495291 -65.767496 -129.973426 -81.971453 -50.09256 -32.722528 159.611387 -31.202614 -128.701561 26.600658 30.073331 -19.413338 1.035873 12.478635 -1.390247 -89.034539 -81.394307 -59.760241 42.442207 58.391696 -36.312449 78.571412 -72.040421 95.867617 148.707534 44.372306 -169.70245 -26.9743 80.122776 -10.135317 7.919131 -20.0594 9.007991 -5.4e-05 0.000231 7e-05 -9.6332 -41.167015 -6.519657 61.618436 52.00194 48.820321 -162.375158 -13.658664 146.5884 179.984 75.749411 0.012332 -145.934628 28.382897 -94.705528 -100.817552 9.863148 -146.912778 155.031833 44.616118 119.687237
5.9157 63.6834 9.778599999999999 -170.856875 -52.153028 175.082803 -4.415203 -2.09753 115.362042 -8.703048 3.660985 -99.513271 3.396672 21.800095 -112.610305 34.739047 11.802355 164.593262 -0.001138 -0.0 0.002208 0.000457 -0.0 -0.001224 3.456273 -62.66886 -13.250052 -171.090716 -0.664876 172.88637 -156.474799 -85.113748 -36.102645 -15.414185 -50.391089 -13.74872 4.654464 -4.638416 -0.53013 30.578372 -58.674148 -21.633529 -166.822237 -43.973669 122.061653 6.667652 13.900899 -6.712547 -161.15421 -8.160519 143.465134 7.092938 -11.620936 -0.785265 -0.02232 -1.725972 -0.542941 7.589298 26.549634 4.02134 -148.748264 24.215238 -144.893096 -161.315956 52.702775 -146.830121 155.537591 -3.733418 -161.8847 -29.691559 7.992046 26.205764 -1.607611 -23.37371 68.858132 -179.735037 -11.002204 -143.386967 -4.53034 -4.514314 0.521534 -179.403655 -81.842778 -105.12683 173.385987 -52.451158 -119.983017 178.424172 -47.714373 -111.961344 89.83542 60.70322 -81.263049 -2.855142 1.673482 -0.398837 145.12096 1.97543 179.748849 7.082239 -61.105309 27.897233 152.499226 38.522481 147.802262 6.318495 -17.357394 8.676385 179.982848 75.749881 0.011736 171.254492 31.761157 -163.708993 -65.081552 -41.465231 -147.717771 24.808827 67.364556 -131.47534 -179.993681 75.749881 -0.00652 -148.415964 35.570135 -121.254155 -89.774613 -25.201893 0.194226 53.170978 63.006379 36.828606
